<?xml version="1.0" encoding="iso-8859-1"?>
<!-- Generator: Adobe Illustrator 18.0.0, SVG Export Plug-In . SVG Version: 6.00 Build 0)  -->
<!DOCTYPE svg PUBLIC "-//W3C//DTD SVG 1.1//EN" "http://www.w3.org/Graphics/SVG/1.1/DTD/svg11.dtd">
<svg version="1.1" id="Capa_1" xmlns="http://www.w3.org/2000/svg" xmlns:xlink="http://www.w3.org/1999/xlink" x="0px" y="0px"
	 viewBox="0 0 443.995 443.995" style="enable-background:new 0 0 443.995 443.995;" xml:space="preserve">
<g>
	<path d="M280.386,197.612v-12.805c0-26.196-17.25-48.361-41.009-55.759v-4.774c0-9.638-5.658-17.724-13.25-19.921V91.119
		c2.126-1.363,3.538-3.741,3.538-6.455c0-4.235-3.432-7.666-7.666-7.666c-4.235,0-7.667,3.431-7.667,7.666
		c0,2.714,1.413,5.092,3.539,6.455v13.233c-7.593,2.198-13.251,10.284-13.251,19.921v4.775
		c-23.76,7.397-41.009,29.563-41.009,55.759v12.805c11.941-7.013,30.472-13.396,58.389-13.396
		C249.915,184.216,268.445,190.599,280.386,197.612z M214.729,124.273c0-5.648,3.329-10.421,7.269-10.421
		c3.939,0,7.268,4.772,7.268,10.421v2.61c-2.383-0.296-4.805-0.466-7.268-0.466s-4.886,0.17-7.269,0.467V124.273z"/>
	<path d="M307.869,238.227v17.547l-7.519-3.796l-11.796-5.955v-26.024c-3.294-4.819-19.368-23.987-66.556-23.987
		c-47.157,0-63.286,19.221-66.557,23.989v26.919l-11.796,5.54l-7.519,3.531v-17.764H0v24.096h11.641v104.675h125.633h0.447h168.553
		h0.447h125.635V262.322h11.64v-24.096H307.869z M59.216,338.859H43.881v-73.633h15.335V338.859z M101.681,338.859H86.346v-73.633
		h15.335V338.859z M225.152,225.989l64.096,32.356H156.253L225.152,225.989z M172.454,351.663h-19.846v-74.006h19.846V351.663z
		 M213.741,351.663h-24.773v-74.006h24.773V351.663z M255.026,351.663h-24.771v-74.006h24.771V351.663z M291.386,351.663H271.54
		v-74.006h19.846V351.663z M357.648,338.859h-15.334v-73.633h15.334V338.859z M400.113,338.859h-15.334v-73.633h15.334V338.859z"/>
</g>
<g>
</g>
<g>
</g>
<g>
</g>
<g>
</g>
<g>
</g>
<g>
</g>
<g>
</g>
<g>
</g>
<g>
</g>
<g>
</g>
<g>
</g>
<g>
</g>
<g>
</g>
<g>
</g>
<g>
</g>
</svg>
